<svg id="Layer_1" enable-background="new 0 0 128 128" height="512" viewBox="0 0 128 128" width="512" xmlns="http://www.w3.org/2000/svg"><path d="m91.454 50.114v-17.239c0-2.192-1.153-4.121-3.085-5.158-1.931-1.036-4.176-.934-6.004.278l-22.547 14.944h-31.205c-8.122 0-14.831 6.113-15.8 13.977h-1.437c-2.965 0-5.376 2.411-5.376 5.374v1.402c0 2.964 2.411 5.375 5.375 5.375h1.438c.969 7.864 7.678 13.977 15.8 13.977h7.59v16.773c0 2.853 2.321 5.174 5.174 5.174h4.898c2.854 0 5.175-2.321 5.175-5.174v-16.772h8.367l22.548 14.943c.991.657 2.105.988 3.226.988.945 0 1.895-.236 2.778-.71 1.932-1.038 3.085-2.966 3.085-5.158v-17.238c6.662-.514 11.929-6.087 11.929-12.879 0-6.791-5.267-12.364-11.929-12.877z" fill="#e6e7e8"/><path d="m125 63.52h-17.417c-.553 0-1 .448-1 1s.447 1 1 1h17.417c.553 0 1-.448 1-1s-.447-1-1-1z" fill="#e6e7e8"/><path d="m108.253 71.538c-.409-.368-1.041-.338-1.412.073-.37.41-.338 1.042.072 1.413l11.468 10.347c.191.172.431.257.67.257.272 0 .545-.111.742-.33.37-.41.338-1.042-.072-1.413z" fill="#e6e7e8"/><path d="m107.583 57.76c.239 0 .479-.085.67-.257l11.468-10.347c.41-.37.442-1.002.072-1.413-.371-.41-1.002-.441-1.412-.073l-11.468 10.347c-.41.37-.442 1.002-.072 1.413.197.219.47.33.742.33z" fill="#e6e7e8"/><path d="m33.203 78.045v17.773c0 2.306 1.869 4.175 4.175 4.175h4.898c2.306 0 4.175-1.869 4.175-4.175v-17.773z" fill="#0089ef"/><path d="m86.454 47.063v23.858c6.588 0 11.929-5.341 11.929-11.929s-5.341-11.929-11.929-11.929z" fill="#fff"/><path d="m98.27 60.544c-.762-5.853-5.756-10.377-11.817-10.377v20.754c6.062 0 11.055-4.524 11.817-10.377z" fill="#fa759e"/><path d="m24.613 39.939c-8.247 0-14.933 6.686-14.933 14.933v8.239c0 8.247 6.686 14.933 14.933 14.933h31.506v-38.105z" fill="#6dc9f7"/><path d="m78.918 24.829-22.799 15.11v38.106l22.799 15.11c3.227 2.139 7.536-.175 7.536-4.046v-60.234c0-3.871-4.309-6.185-7.536-4.046z" fill="#d4fbff"/><path d="m7.375 53.916c-2.416 0-4.375 1.958-4.375 4.375v1.402c0 2.416 1.959 4.375 4.375 4.375h2.305v-10.152z" fill="#0089ef"/><g fill="#3a2c60"><path d="m87.454 46.114v-17.239c0-2.192-1.153-4.121-3.085-5.158-1.931-1.036-4.176-.933-6.004.278l-22.547 14.944h-7.142c-.552 0-1 .448-1 1s.448 1 1 1h6.443v36.106h-8.668-13.248-8.59c-7.683 0-13.933-6.25-13.933-13.933v-8.239c0-7.683 6.25-13.934 13.933-13.934h8.974c.552 0 1-.448 1-1s-.448-1-1-1h-8.974c-8.122 0-14.831 6.113-15.8 13.977h-1.438c-2.964 0-5.375 2.411-5.375 5.375v1.402c0 2.963 2.411 5.375 5.375 5.375h1.437c.969 7.864 7.678 13.977 15.8 13.977h7.59v16.773c0 2.854 2.321 5.175 5.174 5.175h4.898c2.854 0 5.175-2.321 5.175-5.175v-16.773h8.367l22.548 14.944c.991.657 2.105.988 3.226.988.945 0 1.895-.236 2.778-.71 1.932-1.038 3.085-2.966 3.085-5.158v-17.239c6.662-.514 11.929-6.087 11.929-12.878s-5.266-12.365-11.928-12.878zm-83.454 13.579v-1.402c0-1.861 1.514-3.375 3.375-3.375h1.305v8.152h-1.305c-1.861 0-3.375-1.514-3.375-3.375zm41.451 36.125c0 1.75-1.424 3.175-3.175 3.175h-4.898c-1.75 0-3.174-1.424-3.174-3.175v-16.773h11.248v16.773zm40.003-6.709c0 1.443-.76 2.713-2.031 3.396-1.271.684-2.749.615-3.952-.183l-22.352-14.815v-37.031l22.352-14.813c1.203-.798 2.68-.866 3.952-.183 1.271.683 2.031 1.953 2.031 3.396v18.188 23.857zm2-19.234v-21.766c5.56.506 9.929 5.194 9.929 10.883s-4.369 10.377-9.929 10.883z"/><path d="m38.113 40.939h5.993c.552 0 1-.448 1-1s-.448-1-1-1h-5.993c-.552 0-1 .448-1 1s.448 1 1 1z"/><path d="m121 59.52h-17.417c-.553 0-1 .448-1 1s.447 1 1 1h17.417c.553 0 1-.448 1-1s-.447-1-1-1z"/><path d="m104.253 67.538c-.409-.369-1.042-.338-1.412.073-.37.41-.338 1.042.072 1.413l11.468 10.347c.191.172.431.257.67.257.272 0 .545-.111.742-.33.37-.41.338-1.042-.072-1.413z"/><path d="m103.583 53.76c.239 0 .479-.085.67-.257l11.468-10.347c.41-.37.442-1.002.072-1.413-.371-.411-1.003-.441-1.412-.073l-11.468 10.347c-.41.37-.442 1.002-.072 1.413.197.219.47.33.742.33z"/></g></svg>