<svg id="Layer_1" enable-background="new 0 0 128 128" height="512" viewBox="0 0 128 128" width="512" xmlns="http://www.w3.org/2000/svg"><path d="m120.079 42.516h-26.228c-2.408 0-4.368 1.96-4.368 4.368v2.49h-3.802v-.18c.79-.95 1.287-2.308 1.287-3.854s-.497-2.905-1.287-3.855v-10.672c0-11.204-9.083-20.287-20.287-20.287h-7.443c-11.204 0-20.287 9.083-20.287 20.287v10.673c-.79.95-1.287 2.308-1.287 3.855s.497 2.905 1.287 3.854v.18h-10.797c-5.327 0-9.661 4.333-9.661 9.658v50.763h-8.654c-.552 0-1 .447-1 1v3.854c0 3.764 3.062 6.825 6.826 6.825h100.818c3.764 0 6.825-3.062 6.825-6.825v-3.854c0-.553-.447-1-1-1h-8.932v-42.843h7.988c2.409 0 4.369-1.96 4.369-4.369v-15.7c.002-2.408-1.958-4.368-4.367-4.368z" fill="#e6e7e8"/><path d="m26.367 87.08c0-7.024 2.806-13.389 7.352-18.048-.018.019-.037.036-.055.054v-22.712h-10.797c-4.783 0-8.661 3.877-8.661 8.659v51.774h12.161z" fill="#fff"/><path d="m99.472 61.953-7.736 6.86v-6.86h-1.885c-1.86 0-3.368-1.508-3.368-3.369v-12.21h-4.801v22.712c-.018-.019-.037-.036-.055-.054 4.547 4.659 7.352 11.024 7.352 18.048v19.727h18.112v-44.854z" fill="#fff"/><path d="m26.367 87.08c0-7.024 2.806-13.389 7.352-18.048-.018.019-.037.036-.055.054v-20.16h-10.797c-4.783 0-8.661 3.877-8.661 8.659v49.21h12.161z" fill="#0089ef"/><path d="m99.472 61.953-7.736 6.86v-6.86h-1.885c-1.86 0-3.368-1.508-3.368-3.369v-9.657h-4.801v20.16c-.018-.019-.037-.036-.055-.054 4.547 4.659 7.352 11.024 7.352 18.048v19.715h18.112v-44.843z" fill="#0089ef"/><path d="m26.367 87.08c0-7.024 2.806-13.389 7.352-18.048-.018.019-.037.036-.055.054v-14.053h-12.572v51.774h5.275z" fill="#6dc9f7"/><path d="m99.472 61.953-7.736 6.86v-6.86h-1.885c-1.86 0-3.368-1.508-3.368-3.369v-3.551h-4.801v14.053c-.018-.019-.037-.036-.055-.054 4.547 4.659 7.352 11.024 7.352 18.048v19.727h11.226v-44.854z" fill="#6dc9f7"/><path d="m117.022 106.796v3.854c0 3.216-2.608 5.825-5.825 5.825h-100.818c-3.218 0-5.826-2.608-5.826-5.825v-3.854z" fill="#fa759e"/><path d="m89.851 61.953c-1.86 0-3.368-1.508-3.368-3.369v-15.7c0-1.859 1.508-3.368 3.368-3.368h26.228c1.861 0 3.369 1.509 3.369 3.368v15.7c0 1.861-1.508 3.369-3.369 3.369h-16.607l-7.736 6.86v-6.86z" fill="#fa759e"/><path d="m110.824 48.247c-1.367 0-2.475 1.108-2.475 2.475s1.108 2.475 2.475 2.475 2.475-1.108 2.475-2.475-1.108-2.475-2.475-2.475z" fill="#fff"/><path d="m102.965 48.247c-1.367 0-2.475 1.108-2.475 2.475s1.108 2.475 2.475 2.475 2.475-1.108 2.475-2.475-1.108-2.475-2.475-2.475z" fill="#fff"/><path d="m95.106 48.247c-1.367 0-2.475 1.108-2.475 2.475s1.108 2.475 2.475 2.475 2.475-1.108 2.475-2.475-1.108-2.475-2.475-2.475z" fill="#fff"/><path d="m78.971 37.108c-.421 0-.82.124-1.183.345v4.19c0 1.145-.118 2.26-.302 3.353.439.357.942.576 1.485.576 1.655 0 2.997-1.895 2.997-4.232s-1.342-4.232-2.997-4.232z" fill="#fff"/><path d="m37.558 41.643v-4.19c-.363-.221-.763-.345-1.183-.345-1.656 0-2.997 1.895-2.997 4.232s1.342 4.232 2.997 4.232c.543 0 1.046-.22 1.485-.576-.184-1.093-.302-2.208-.302-3.353z" fill="#fff"/><path d="m65.504 61.337c-.469 3.911-3.793 6.945-7.831 6.945s-7.362-3.033-7.831-6.945c-13.163 1.203-23.475 12.266-23.475 25.743v19.727h62.611v-19.727c0-13.477-10.311-24.54-23.474-25.743z" fill="#ffd7e5"/><path d="m65.504 61.333c-.468 3.913-3.793 6.948-7.831 6.948-4.039 0-7.364-3.036-7.832-6.949-.786.072-1.561.179-2.325.32v45.143h20.347v-45.136c-.775-.144-1.562-.252-2.359-.326z" fill="#d4fbff"/><path d="m57.673 61.758c-2.802 0-5.469-.576-7.893-1.612v.242c0 4.359 3.534 7.893 7.893 7.893s7.893-3.534 7.893-7.893v-.242c-2.424 1.036-5.091 1.612-7.893 1.612z" fill="#fff"/><path d="m62.248 29.364c-8.184-2.479-12.468-7.257-12.468-7.257s-1.809 3.51-5.004 5.403-7.218 2.485-7.218 2.485v11.648c0 11.109 9.006 20.115 20.115 20.115 11.109 0 20.115-9.006 20.115-20.115v-10.543c-.001 0-8.366.437-15.54-1.736z" fill="#fff"/><path d="m70.566 41.621c-1.109 0-2.008.567-2.008 1.265 0 .699.899 1.266 2.008 1.266s2.008-.567 2.008-1.266c0-.698-.899-1.265-2.008-1.265z" fill="#ffd7e5"/><path d="m44.779 41.34c-1.109 0-2.008.566-2.008 1.265s.899 1.266 2.008 1.266 2.008-.567 2.008-1.266-.899-1.265-2.008-1.265z" fill="#ffd7e5"/><g fill="#3a2c60"><path d="m43.175 115.475h-8.842c-.552 0-1 .447-1 1s.448 1 1 1h8.842c.552 0 1-.447 1-1s-.448-1-1-1z"/><path d="m116.079 38.516h-26.228c-2.408 0-4.368 1.96-4.368 4.368v2.49h-3.801v-.18c.79-.95 1.287-2.308 1.287-3.854s-.497-2.904-1.287-3.854v-10.674c0-11.204-9.083-20.287-20.287-20.287h-7.443c-11.204 0-20.287 9.083-20.287 20.287v10.673c-.79.95-1.287 2.308-1.287 3.854s.497 2.905 1.287 3.855v.179h-10.798c-5.327 0-9.661 4.333-9.661 9.659v50.763h-8.654c-.552 0-1 .447-1 1v3.854c0 3.764 3.062 6.825 6.826 6.825h19.272c.552 0 1-.447 1-1s-.448-1-1-1h-19.272c-2.661 0-4.826-2.165-4.826-4.825v-2.854h8.6c.019.001.034.011.053.011h12.162 62.611 18.111c.019 0 .035-.01.053-.011h8.878v2.854c0 2.66-2.164 4.825-4.824 4.825h-63.56c-.552 0-1 .447-1 1s.448 1 1 1h63.562c3.763 0 6.824-3.062 6.824-6.825v-3.854c0-.553-.447-1-1-1h-8.932v-42.842h7.989c2.408 0 4.368-1.96 4.368-4.369v-15.7c0-2.408-1.96-4.368-4.368-4.368zm-43.206 67.28h-4.01v-42.897c4.395 1.025 8.308 3.177 11.428 6.144-4.545 2.479-7.418 7.24-7.418 12.496zm-24.357-43.275c.17-.025.334-.066.505-.088.017.072.041.14.059.211.043.163.084.326.136.485.041.126.09.247.136.37.062.165.125.33.196.49.089.2.182.397.284.589.04.074.085.145.127.218.094.165.191.328.296.486.048.072.098.141.148.211.109.155.221.306.339.453.052.065.105.128.159.192.126.148.256.291.391.43.054.056.107.111.162.166.149.146.304.286.464.421.046.04.091.081.138.12.421.343.872.649 1.35.912.059.032.12.06.179.09.178.093.358.181.542.261.09.039.181.074.273.11.16.064.322.124.486.178.102.034.205.065.308.095.163.047.327.089.493.127.104.024.208.048.313.068.182.035.366.061.552.084.091.012.181.027.274.036.279.027.561.043.847.043.285 0 .567-.016.846-.043.093-.009.184-.024.276-.036.184-.023.368-.05.549-.084.107-.021.212-.045.317-.069.164-.038.327-.079.488-.126.105-.031.21-.063.313-.097.162-.054.32-.113.478-.175.094-.037.189-.073.282-.114.178-.078.351-.163.523-.252.066-.034.134-.065.199-.101.238-.131.47-.271.695-.422.011-.008.022-.017.033-.024.211-.144.414-.297.612-.458.056-.046.109-.095.165-.143.149-.128.295-.258.435-.396.063-.061.123-.125.184-.188.126-.13.247-.264.365-.402.062-.072.122-.145.182-.219.109-.136.212-.275.313-.418.058-.081.116-.162.171-.245.021-.033.046-.063.067-.096.051-.08.095-.165.144-.247.018-.03.036-.061.054-.092.052-.089.107-.176.156-.267.082-.154.155-.313.228-.473.103-.223.195-.45.279-.682.033-.093.071-.183.101-.276.055-.169.1-.343.145-.516.016-.064.038-.125.053-.189.183.023.358.067.539.094v43.269h-18.349zm15.889-.672c-.001.003-.001.006-.002.009-.043.198-.095.391-.154.582-.008.024-.016.048-.024.072-.054.166-.114.329-.179.489-.018.043-.037.087-.055.13-.06.137-.124.272-.192.405-.03.058-.061.116-.092.173-.063.114-.129.225-.198.335-.043.068-.086.135-.13.201-.064.095-.132.188-.201.28-.055.073-.11.145-.167.216-.066.081-.135.159-.205.237-.065.073-.131.146-.199.216-.069.071-.142.139-.214.208-.074.069-.147.139-.224.205-.074.064-.152.125-.229.186-.08.063-.159.127-.241.186s-.168.114-.252.17c-.082.053-.162.108-.246.159-.087.052-.177.098-.266.147-.006.003-.011.006-.017.009-.082.044-.162.09-.246.13-.03.015-.062.027-.093.041-.074.035-.149.067-.225.099-.079.034-.157.07-.238.101-.116.044-.234.081-.353.118-.076.024-.151.052-.228.073-.022.006-.046.01-.068.016-.107.029-.217.053-.326.077-.07.015-.138.034-.208.047-.04.007-.082.01-.122.017-.106.018-.212.032-.32.045-.06.007-.12.019-.181.024-.21.02-.422.03-.637.03s-.427-.01-.637-.03c-.063-.006-.124-.018-.187-.025-.146-.017-.292-.035-.435-.061-.072-.013-.142-.033-.214-.049-.13-.028-.26-.056-.388-.092-.08-.022-.157-.051-.236-.076-.115-.037-.232-.073-.344-.115-.084-.032-.165-.069-.247-.104-.103-.044-.207-.086-.307-.135-.087-.042-.171-.089-.255-.135-.092-.049-.184-.097-.273-.15-.088-.053-.173-.11-.259-.167-.08-.053-.161-.105-.239-.161-.087-.063-.17-.129-.254-.196-.072-.057-.145-.114-.215-.174-.081-.07-.16-.144-.238-.218-.067-.063-.135-.127-.199-.193-.073-.075-.144-.154-.214-.232-.064-.072-.128-.145-.189-.219-.063-.077-.123-.155-.182-.235-.063-.085-.126-.17-.185-.258-.05-.073-.098-.148-.145-.224-.063-.101-.124-.204-.183-.309-.037-.066-.072-.132-.106-.199-.063-.122-.122-.247-.177-.374-.024-.053-.047-.107-.069-.161-.06-.148-.116-.298-.166-.451-.012-.037-.024-.073-.036-.11-.054-.177-.102-.356-.143-.538-.004-.017-.008-.034-.012-.052-.013-.063-.02-.127-.032-.19.097.033.198.055.295.086.2.065.404.119.606.178.413.119.828.228 1.247.321.244.055.489.105.736.151.395.073.792.132 1.19.182.258.033.513.071.773.094.511.046 1.022.069 1.535.078.129.002.254.02.383.02.125 0 .245-.017.369-.019.519-.009 1.038-.032 1.555-.079.254-.023.503-.06.755-.092.406-.051.811-.111 1.213-.186.241-.045.479-.094.717-.147.426-.094.846-.205 1.265-.326.198-.058.398-.111.594-.175.098-.032.199-.054.297-.087-.011.066-.018.135-.032.201zm-19.63-34.339c3.195-1.893 5.004-5.403 5.004-5.403s4.284 4.778 12.468 7.257c5.694 1.725 12.122 1.804 14.539 1.764v6.325 4.19c0 .547-.037 1.084-.082 1.62-.047.492-.112 1-.201 1.532-1.088 6.518-5.465 11.936-11.38 14.449-4.725 2.005-10.172 2.007-14.904 0-5.904-2.509-10.276-7.911-11.375-14.413 0 0 0-.001 0-.002-.092-.549-.159-1.07-.206-1.576-.045-.532-.082-1.067-.082-1.611v-4.19-7.647c1.397-.297 4.006-.983 6.219-2.295zm1.741 35.381v42.905h-4.047v-24.257c0-5.254-2.872-10.014-7.415-12.494 3.127-2.975 7.052-5.133 11.462-6.154zm32.06-18.396c.005-.037.007-.07.012-.107.045-.345.085-.692.113-1.042.052-.581.086-1.15.086-1.702v-3.521c1.144-.18 2.181 1.365 2.181 3.217 0 1.963-1.152 3.639-2.392 3.155zm-42.201-6.387c.061 0 .122.005.183.015v3.521c0 .546.034 1.111.086 1.689.029.366.071.727.119 1.088.004.026.005.049.008.075-1.246.483-2.393-1.193-2.393-3.155-.001-1.753.914-3.233 1.997-3.233zm-2.768 32.439c4.187 2.049 6.861 6.291 6.861 10.992v24.257h-13.101v-18.716c0-6.347 2.34-12.139 6.24-16.533zm54.372 35.249h-13.106v-24.257c0-4.703 2.676-8.945 6.864-10.994 3.901 4.395 6.241 10.187 6.241 16.535v18.716zm-72.773-50.763c0-4.224 3.437-7.659 7.661-7.659h10.797v20.236c-5.14 4.895-8.297 11.807-8.297 19.47v18.716h-10.161zm90.884 50.763h-16.111v-18.716c0-7.663-3.157-14.575-8.297-19.47v-20.236h3.801v11.21c0 2.409 1.96 4.369 4.368 4.369h.886v5.86c0 .394.23.751.59.912.132.059.271.088.41.088.24 0 .477-.086.663-.252l7.452-6.608h6.238zm12.357-47.212c0 1.307-1.063 2.369-2.368 2.369h-16.607c-.244 0-.48.09-.663.252l-6.072 5.385v-4.637c0-.553-.447-1-1-1h-1.886c-1.306 0-2.368-1.063-2.368-2.369v-15.7c0-1.306 1.063-2.368 2.368-2.368h26.229c1.306 0 2.368 1.063 2.368 2.368v15.7z"/><path d="m48.798 36.816c-1.111 0-2.011.901-2.011 2.011s.901 2.011 2.011 2.011c1.111 0 2.012-.901 2.012-2.011s-.901-2.011-2.012-2.011z"/><circle cx="66.547" cy="38.828" r="2.011"/><path d="m57.673 48.781c1.813 0 3.287-1.475 3.287-3.288v-1.341c0-.553-.448-1-1-1s-1 .447-1 1v1.341c0 .71-.578 1.288-1.287 1.288-.71 0-1.288-.578-1.288-1.288v-1.341c0-.553-.448-1-1-1s-1 .447-1 1v1.341c0 1.814 1.475 3.288 3.288 3.288z"/><path d="m64.997 32.812 3.938.687c.059.01.116.015.173.015.478 0 .899-.343.984-.828.095-.544-.27-1.063-.813-1.157l-3.938-.687c-.548-.092-1.062.271-1.157.813-.095.544.269 1.063.813 1.157z"/><path d="m46.236 33.514c.057 0 .115-.005.173-.015l3.939-.687c.544-.095.908-.613.813-1.157-.095-.543-.608-.905-1.157-.813l-3.939.687c-.544.095-.908.613-.813 1.157.085.485.507.828.984.828z"/></g><path d="m58.027 54.059c-3.454 0-5.211-2.382-5.285-2.482-.33-.458-.227-1.096.231-1.426.457-.327 1.092-.227 1.421.226.062.083 1.266 1.642 3.632 1.642 2.363 0 3.63-1.639 3.643-1.655.34-.45.98-.539 1.43-.197.45.34.538.98.198 1.43-.075.098-1.903 2.462-5.27 2.462z" fill="#fa759e"/></svg>